<svg xmlns="http://www.w3.org/2000/svg" xmlns:xlink="http://www.w3.org/1999/xlink" width="117" height="118" viewBox="0 0 117 118">
    <defs>
        <path id="13pyeojs5a" d="M.33 9.87c0 5.282 4.282 9.563 9.563 9.563 5.28 0 9.562-4.28 9.562-9.562 0-5.282-4.281-9.563-9.562-9.563S.33 4.59.33 9.871z"/>
    </defs>
    <g fill="none" fill-rule="evenodd">
        <g>
            <g>
                <g>
                    <g transform="translate(-335 -409) translate(248 307) translate(88 103) translate(47.52 47.916)">
                        <mask id="a57whvlelb" fill="#fff">
                            <use xlink:href="#13pyeojs5a"/>
                        </mask>
                        <path stroke="#FFF" stroke-width=".792" d="M4.175 7.751c0 4.71 3.818 8.528 8.527 8.528 4.71 0 8.528-3.818 8.528-8.528 0-4.71-3.818-8.527-8.528-8.527-4.71 0-8.527 3.817-8.527 8.527z" mask="url(#a57whvlelb)"/>
                    </g>
                    <g>
                        <path stroke="#FFF" stroke-width=".792" d="M47.85 57.787c0 5.281 4.282 9.562 9.563 9.562 5.28 0 9.562-4.28 9.562-9.562 0-5.281-4.281-9.563-9.562-9.563s-9.563 4.282-9.563 9.563z" transform="translate(-335 -409) translate(248 307) translate(88 103)"/>
                        <path stroke="#FFF" stroke-linecap="round" stroke-linejoin="round" stroke-width=".792" d="M57.256 42.956L57.256 21.71M57.256 93.732L57.256 72.486M72.021 57.756L91.872 57.756M21.384 57.756L42.492 57.756M67.644 47.23L82.781 32.093M31.763 83.111L46.765 68.109M67.718 68.139L82.691 83.111M31.763 32.183L46.839 47.259M62.843 71.391L66.336 79.927M47.709 34.407L51.658 44.056M51.498 71.321L47.88 79.95M66.897 34.591L62.918 44.081M70.912 63.494L79.851 67.241M34.492 48.225L43.577 52.034M70.912 52.1L78.759 48.888M33.24 67.516L43.577 63.286" transform="translate(-335 -409) translate(248 307) translate(88 103)"/>
                        <path stroke="#FFF" stroke-dasharray=".805 2.013" stroke-linecap="round" stroke-linejoin="round" stroke-width=".792" d="M45.144 57.608c0 6.69 5.423 12.113 12.113 12.113 6.69 0 12.113-5.423 12.113-12.113 0-6.69-5.424-12.113-12.113-12.113-6.69 0-12.113 5.424-12.113 12.113z" transform="translate(-335 -409) translate(248 307) translate(88 103)"/>
                        <path fill="#FFF" fill-rule="nonzero" d="M61.2 4.946c.486.162.849.478 1.088.95.24.471.286.953.141 1.446-.063.197-.15.38-.26.549-.111.169-.247.316-.407.443-.076.063-.16.087-.25.074-.09-.015-.166-.057-.228-.127-.028-.042-.047-.085-.058-.126-.01-.043-.012-.089-.005-.138.007-.042.02-.082.042-.121.02-.039.048-.072.083-.1.104-.085.194-.182.27-.29.077-.11.133-.228.167-.354.098-.324.067-.639-.094-.944-.159-.307-.395-.512-.707-.618-.32-.106-.633-.083-.943.068-.308.152-.521.385-.64.702l-1.51 5.605c-.02.07-.06.128-.119.173-.06.046-.127.069-.204.069H57.4c-.076 0-.144-.023-.203-.068-.059-.046-.099-.108-.12-.185l-1.489-5.551c-.11-.324-.319-.565-.624-.724-.305-.158-.615-.191-.927-.1-.166.05-.314.13-.442.244-.128.112-.234.245-.318.4-.076.155-.12.318-.13.49-.01.173.012.344.068.513.041.113.097.218.167.316.07.1.152.183.25.253.076.064.119.142.13.233.01.091-.013.176-.068.253-.056.07-.13.111-.224.122-.094.01-.175-.013-.244-.069-.153-.113-.284-.245-.391-.396-.108-.15-.192-.315-.255-.49-.084-.254-.116-.514-.1-.781.018-.268.086-.521.204-.76.118-.24.277-.444.479-.613.201-.168.43-.291.687-.37.493-.154.97-.108 1.432.138.462.247.778.623.952 1.13l.005.004c.004.004.005.01.005.016l1.25 4.665 1.27-4.707v-.015c0-.004.004-.01.01-.016.174-.5.497-.866.969-1.098.472-.232.957-.263 1.457-.095z" transform="translate(-335 -409) translate(248 307) translate(88 103)"/>
                        <path d="M61.2 4.946c.486.162.849.478 1.088.95.24.471.286.953.141 1.446-.063.197-.15.38-.26.549-.111.169-.247.316-.407.443-.076.063-.16.087-.25.074-.09-.015-.166-.057-.228-.127-.028-.042-.047-.085-.058-.126-.01-.043-.012-.089-.005-.138.007-.042.02-.082.042-.121.02-.039.048-.072.083-.1.104-.085.194-.182.27-.29.077-.11.133-.228.167-.354.098-.324.067-.639-.094-.944-.159-.307-.395-.512-.707-.618-.32-.106-.633-.083-.943.068-.308.152-.521.385-.64.702l-1.51 5.605c-.02.07-.06.128-.119.173-.06.046-.127.069-.204.069H57.4c-.076 0-.144-.023-.203-.068-.059-.046-.099-.108-.12-.185l-1.489-5.551c-.11-.324-.319-.565-.624-.724-.305-.158-.615-.191-.927-.1-.166.05-.314.13-.442.244-.128.112-.234.245-.318.4-.076.155-.12.318-.13.49-.01.173.012.344.068.513.041.113.097.218.167.316.07.1.152.183.25.253.076.064.119.142.13.233.01.091-.013.176-.068.253-.056.07-.13.111-.224.122-.094.01-.175-.013-.244-.069-.153-.113-.284-.245-.391-.396-.108-.15-.192-.315-.255-.49-.084-.254-.116-.514-.1-.781.018-.268.086-.521.204-.76.118-.24.277-.444.479-.613.201-.168.43-.291.687-.37.493-.154.97-.108 1.432.138.462.247.778.623.952 1.13l.005.004c.004.004.005.01.005.016l1.25 4.665 1.27-4.707v-.015c0-.004.004-.01.01-.016.174-.5.497-.866.969-1.098.472-.232.957-.263 1.457-.095z" transform="translate(-335 -409) translate(248 307) translate(88 103)"/>
                        <path stroke="#FFF" stroke-linecap="round" stroke-linejoin="round" stroke-width=".792" d="M49.104 8.316c0 4.593 3.723 8.316 8.316 8.316 4.593 0 8.316-3.723 8.316-8.316C65.736 3.723 62.013 0 57.42 0c-4.593 0-8.316 3.723-8.316 8.316z" transform="translate(-335 -409) translate(248 307) translate(88 103)"/>
                        <path fill="#FFF" fill-rule="nonzero" d="M31.56 15.618c-.528.237-.892.632-1.095 1.187-.203.554-.183 1.102.06 1.643.243.542.64.921 1.188 1.138.549.216 1.087.207 1.614-.03.52-.234.882-.628 1.084-1.182.203-.554.182-1.102-.06-1.643-.243-.542-.639-.92-1.188-1.138-.548-.217-1.083-.208-1.603.025m2.896-4.948c.094-.042.191-.044.292-.004.1.04.171.108.215.204.042.096.046.195.01.297-.038.101-.104.172-.198.215-.447.2-.798.465-1.05.792-.253.327-.443.773-.571 1.339-.054.247-.117.464-.189.653-.072.188-.16.359-.264.512.514.064.98.248 1.4.554.42.306.738.7.954 1.183.167.37.254.75.264 1.138.01.387-.052.755-.182 1.104-.13.347-.323.663-.577.947-.255.283-.56.504-.913.663-.361.162-.733.244-1.114.246-.38.002-.745-.064-1.091-.198-.347-.134-.663-.333-.946-.598-.283-.265-.509-.582-.675-.953-.216-.482-.3-.979-.252-1.49.048-.512.215-.98.503-1.403-.185-.023-.375-.072-.572-.143-.197-.072-.401-.168-.611-.287-.45-.288-.888-.45-1.313-.487-.424-.037-.867.049-1.33.257-.093.042-.19.045-.288.008-.1-.035-.172-.105-.218-.21-.043-.095-.046-.194-.01-.295.037-.102.103-.173.197-.216.585-.262 1.15-.373 1.693-.332.544.041 1.095.239 1.654.594.364.211.695.327.996.348.3.021.624-.046.97-.202.333-.149.585-.34.758-.573.173-.234.31-.57.409-1.006.163-.679.407-1.23.73-1.65.323-.422.763-.757 1.319-1.007" transform="translate(-335 -409) translate(248 307) translate(88 103)"/>
                        <path d="M31.56 15.618c-.528.237-.892.632-1.095 1.187-.203.554-.183 1.102.06 1.643.243.542.64.921 1.188 1.138.549.216 1.087.207 1.614-.03.52-.234.882-.628 1.084-1.182.203-.554.182-1.102-.06-1.643-.243-.542-.639-.92-1.188-1.138-.548-.217-1.083-.208-1.603.025zm2.896-4.948c.094-.042.191-.044.292-.004.1.04.171.108.215.204.042.096.046.195.01.297-.038.101-.104.172-.198.215-.447.2-.798.465-1.05.792-.253.327-.443.773-.571 1.339-.054.247-.117.464-.189.653-.072.188-.16.359-.264.512.514.064.98.248 1.4.554.42.306.738.7.954 1.183.167.37.254.75.264 1.138.01.387-.052.755-.182 1.104-.13.347-.323.663-.577.947-.255.283-.56.504-.913.663-.361.162-.733.244-1.114.246-.38.002-.745-.064-1.091-.198-.347-.134-.663-.333-.946-.598-.283-.265-.509-.582-.675-.953-.216-.482-.3-.979-.252-1.49.048-.512.215-.98.503-1.403-.185-.023-.375-.072-.572-.143-.197-.072-.401-.168-.611-.287-.45-.288-.888-.45-1.313-.487-.424-.037-.867.049-1.33.257-.093.042-.19.045-.288.008-.1-.035-.172-.105-.218-.21-.043-.095-.046-.194-.01-.295.037-.102.103-.173.197-.216.585-.262 1.15-.373 1.693-.332.544.041 1.095.239 1.654.594.364.211.695.327.996.348.3.021.624-.046.97-.202.333-.149.585-.34.758-.573.173-.234.31-.57.409-1.006.163-.679.407-1.23.73-1.65.323-.422.763-.757 1.319-1.007z" transform="translate(-335 -409) translate(248 307) translate(88 103)"/>
                        <path stroke="#FFF" stroke-linecap="round" stroke-linejoin="round" stroke-width=".792" d="M23.364 15.84c0 4.593 3.723 8.316 8.316 8.316 4.593 0 8.316-3.723 8.316-8.316 0-4.593-3.723-8.316-8.316-8.316-4.593 0-8.316 3.723-8.316 8.316z" transform="translate(-335 -409) translate(248 307) translate(88 103)"/>
                        <path fill="#FFF" fill-rule="nonzero" d="M86.693 18.139c.051.036.098.121.12.242.022.12-.003.156-.052.226-.05.07-.135.114-.22.159-.122.02-.182.03-.223-.14l-1.753-1.241c-.377.608-.52 1.19-.568 1.788-.022.562.101 1.07.395 1.489.047.085.058.146.044.24-.013.097-.063.166-.174.246-.085.045-.17.09-.266.074-.097-.016-.168-.067-.215-.152-.176-.283-.292-.574-.382-.902-.09-.326-.12-.664-.09-1.01s.06-.692.177-1.083c.116-.391.367-.897.367-.897l-2.395-1.697c-.241.27-.493.484-.767.73-.285.19-.57.38-.898.491-.295.133-.634.188-.915.233-.283.045-.608.01-.911-.057l-.033-.024-.034-.023c-.067-.047-.076-.104-.12-.184-.01-.056-.02-.112-.007-.2l.092-.132c.025-.034.05-.07.11-.08.025-.034.085-.043.146-.054.06-.01.096.016.156.007.457.112.977.06 1.535-.122.559-.183 1.023-.535 1.43-1.035l-1.821-1.29c-.072-.05-.118-.137-.14-.258-.036-.025-.022-.12.052-.224.075-.106.135-.115.22-.16.085-.045.182-.03.288.047l1.713 1.213s.425-.98.437-1.602c.01-.622-.101-1.07-.36-1.464-.036-.025-.047-.085-.058-.145-.01-.06-.047-.086.003-.156.025-.035.013-.095.114-.077l.074-.105c.01-.098.132-.118.228-.102s.168.067.214.152c.201.248.316.54.407.867.09.326.12.663.09 1.01-.03.346-.061.692-.176 1.083-.092.356-.244.722-.542 1.142l2.29 1.621c.332-.395.566-.65.897-.89.33-.238.611-.407.964-.525.316-.144.68-.202.982-.25.34-.023.653-.012.977.06.097.016.168.067.215.153.047.085.033.18.019.276-.014.095-.063.165-.174.245-.085.045-.17.089-.277.013-.457-.113-.978-.06-1.536.122-.523.208-1.025.536-1.39.978l1.808 1.28-.067.094z" transform="translate(-335 -409) translate(248 307) translate(88 103)"/>
                        <path d="M86.693 18.139c.051.036.098.121.12.242.022.12-.003.156-.052.226-.05.07-.135.114-.22.159-.122.02-.182.03-.223-.14l-1.753-1.241c-.377.608-.52 1.19-.568 1.788-.022.562.101 1.07.395 1.489.047.085.058.146.044.24-.013.097-.063.166-.174.246-.085.045-.17.09-.266.074-.097-.016-.168-.067-.215-.152-.176-.283-.292-.574-.382-.902-.09-.326-.12-.664-.09-1.01s.06-.692.177-1.083c.116-.391.367-.897.367-.897l-2.395-1.697c-.241.27-.493.484-.767.73-.285.19-.57.38-.898.491-.295.133-.634.188-.915.233-.283.045-.608.01-.911-.057l-.033-.024-.034-.023c-.067-.047-.076-.104-.12-.184-.01-.056-.02-.112-.007-.2l.092-.132c.025-.034.05-.07.11-.08.025-.034.085-.043.146-.054.06-.01.096.016.156.007.457.112.977.06 1.535-.122.559-.183 1.023-.535 1.43-1.035l-1.821-1.29c-.072-.05-.118-.137-.14-.258-.036-.025-.022-.12.052-.224.075-.106.135-.115.22-.16.085-.045.182-.03.288.047l1.713 1.213s.425-.98.437-1.602c.01-.622-.101-1.07-.36-1.464-.036-.025-.047-.085-.058-.145-.01-.06-.047-.086.003-.156.025-.035.013-.095.114-.077l.074-.105c.01-.098.132-.118.228-.102s.168.067.214.152c.201.248.316.54.407.867.09.326.12.663.09 1.01-.03.346-.061.692-.176 1.083-.092.356-.244.722-.542 1.142l2.29 1.621c.332-.395.566-.65.897-.89.33-.238.611-.407.964-.525.316-.144.68-.202.982-.25.34-.023.653-.012.977.06.097.016.168.067.215.153.047.085.033.18.019.276-.014.095-.063.165-.174.245-.085.045-.17.089-.277.013-.457-.113-.978-.06-1.536.122-.523.208-1.025.536-1.39.978l1.808 1.28-.067.094z" transform="translate(-335 -409) translate(248 307) translate(88 103)"/>
                        <path stroke="#FFF" stroke-linecap="round" stroke-linejoin="round" stroke-width=".792" d="M74.844 15.84c0 4.593 3.723 8.316 8.316 8.316 4.593 0 8.316-3.723 8.316-8.316 0-4.593-3.723-8.316-8.316-8.316-4.593 0-8.316 3.723-8.316 8.316z" transform="translate(-335 -409) translate(248 307) translate(88 103)"/>
                        <path fill="#FFF" fill-rule="nonzero" d="M104.52 35.212c.133.295.165.571.095.828s-.219.568-.447.932c-.18.29-.286.505-.32.646-.034.141-.019.284.046.428.046.1.043.202-.01.303-.051.102-.139.18-.258.235-.112.05-.223.062-.334.035-.111-.028-.19-.093-.235-.193-.134-.295-.166-.57-.096-.828.069-.257.218-.567.446-.931.18-.29.287-.506.321-.646.034-.141.018-.284-.047-.428-.069-.15-.166-.258-.293-.322-.128-.063-.361-.127-.7-.19-.425-.067-.757-.159-.996-.276-.24-.116-.426-.322-.56-.617-.134-.295-.166-.57-.096-.828.069-.256.218-.567.446-.931.177-.297.283-.514.319-.652.036-.137.02-.281-.05-.432-.065-.144-.162-.25-.29-.317-.13-.067-.362-.129-.698-.184-.425-.067-.757-.16-.996-.276-.24-.117-.426-.323-.56-.618-.046-.1-.042-.201.01-.303.052-.102.134-.178.245-.229.12-.055.236-.068.347-.04.111.027.19.091.235.192.069.151.167.258.294.322.127.063.36.123.695.179.425.067.756.159.996.276.24.116.426.322.56.617.138.302.17.579.099.833-.072.254-.22.566-.445.937-.18.29-.287.503-.323.64-.035.139-.02.282.05.434.068.15.165.258.293.322.127.063.359.123.696.178.427.075.76.169.997.282.239.113.426.32.563.622zm-3.837 1.65c.133.295.165.57.096.827-.07.257-.219.568-.447.932-.18.29-.286.504-.32.646-.035.14-.019.283.046.427.046.101.043.203-.01.304-.052.102-.134.178-.246.228-.12.055-.236.069-.346.041-.11-.027-.19-.092-.235-.192-.134-.295-.166-.57-.096-.828.07-.257.218-.568.446-.932.18-.29.287-.505.32-.646.035-.14.02-.283-.046-.427-.069-.151-.166-.258-.294-.322-.127-.064-.36-.127-.7-.19-.424-.067-.756-.159-.995-.276-.24-.116-.426-.322-.56-.617-.134-.295-.166-.57-.096-.828.069-.257.218-.568.447-.932.175-.296.282-.513.317-.651.036-.138.02-.282-.049-.433-.065-.144-.162-.249-.29-.316-.13-.068-.362-.129-.698-.184-.424-.068-.757-.16-.996-.276-.24-.117-.427-.323-.56-.618-.046-.1-.043-.201.01-.303.052-.102.138-.18.258-.235.112-.05.224-.063.334-.035.111.027.19.092.235.193.069.15.167.258.294.322.127.063.359.123.695.178.424.068.757.16.995.277.24.116.427.322.561.617.137.302.17.579.099.832-.072.255-.22.567-.445.938-.18.29-.287.503-.323.64-.036.139-.02.282.05.433.068.151.166.259.293.323.127.063.359.123.695.178.427.075.76.169.998.282.238.113.426.32.563.622z" transform="translate(-335 -409) translate(248 307) translate(88 103)"/>
                        <path d="M104.52 35.212c.133.295.165.571.095.828s-.219.568-.447.932c-.18.29-.286.505-.32.646-.034.141-.019.284.046.428.046.1.043.202-.01.303-.051.102-.139.18-.258.235-.112.05-.223.062-.334.035-.111-.028-.19-.093-.235-.193-.134-.295-.166-.57-.096-.828.069-.257.218-.567.446-.931.18-.29.287-.506.321-.646.034-.141.018-.284-.047-.428-.069-.15-.166-.258-.293-.322-.128-.063-.361-.127-.7-.19-.425-.067-.757-.159-.996-.276-.24-.116-.426-.322-.56-.617-.134-.295-.166-.57-.096-.828.069-.256.218-.567.446-.931.177-.297.283-.514.319-.652.036-.137.02-.281-.05-.432-.065-.144-.162-.25-.29-.317-.13-.067-.362-.129-.698-.184-.425-.067-.757-.16-.996-.276-.24-.117-.426-.323-.56-.618-.046-.1-.042-.201.01-.303.052-.102.134-.178.245-.229.12-.055.236-.068.347-.04.111.027.19.091.235.192.069.151.167.258.294.322.127.063.36.123.695.179.425.067.756.159.996.276.24.116.426.322.56.617.138.302.17.579.099.833-.072.254-.22.566-.445.937-.18.29-.287.503-.323.64-.035.139-.02.282.05.434.068.15.165.258.293.322.127.063.359.123.696.178.427.075.76.169.997.282.239.113.426.32.563.622zm-3.837 1.65c.133.295.165.57.096.827-.07.257-.219.568-.447.932-.18.29-.286.504-.32.646-.035.14-.019.283.046.427.046.101.043.203-.01.304-.052.102-.134.178-.246.228-.12.055-.236.069-.346.041-.11-.027-.19-.092-.235-.192-.134-.295-.166-.57-.096-.828.07-.257.218-.568.446-.932.18-.29.287-.505.32-.646.035-.14.02-.283-.046-.427-.069-.151-.166-.258-.294-.322-.127-.064-.36-.127-.7-.19-.424-.067-.756-.159-.995-.276-.24-.116-.426-.322-.56-.617-.134-.295-.166-.57-.096-.828.069-.257.218-.568.447-.932.175-.296.282-.513.317-.651.036-.138.02-.282-.049-.433-.065-.144-.162-.249-.29-.316-.13-.068-.362-.129-.698-.184-.424-.068-.757-.16-.996-.276-.24-.117-.427-.323-.56-.618-.046-.1-.043-.201.01-.303.052-.102.138-.18.258-.235.112-.05.224-.063.334-.035.111.027.19.092.235.193.069.15.167.258.294.322.127.063.359.123.695.178.424.068.757.16.995.277.24.116.427.322.561.617.137.302.17.579.099.832-.072.255-.22.567-.445.938-.18.29-.287.503-.323.64-.036.139-.02.282.05.433.068.151.166.259.293.323.127.063.359.123.695.178.427.075.76.169.998.282.238.113.426.32.563.622z" transform="translate(-335 -409) translate(248 307) translate(88 103)"/>
                        <path stroke="#FFF" stroke-linecap="round" stroke-linejoin="round" stroke-width=".792" d="M91.872 34.452c0 4.593 3.723 8.316 8.316 8.316 4.593 0 8.316-3.723 8.316-8.316 0-4.593-3.723-8.316-8.316-8.316-4.593 0-8.316 3.723-8.316 8.316z" transform="translate(-335 -409) translate(248 307) translate(88 103)"/>
                        <path fill="#FFF" fill-rule="nonzero" d="M104.57 60.55c.008-.155-.017-.325-.078-.509-.06-.143-.206-.323-.435-.538-.229-.216-.46-.424-.691-.623l-.132-.124c-.218.025-.399.132-.54.32-.142.188-.245.454-.308.797-.04.215-.043.412-.01.592.035.18.11.341.225.487.133.18.285.31.457.388.171.076.308.116.411.119.118.005.277-.034.478-.116.202-.081.361-.207.48-.374.086-.124.133-.264.142-.42v.001zm6.187-2.26c-.087.467-.318.837-.695 1.11-.377.274-.789.37-1.237.286l-4.182-.776s.218.315.32.446c.103.13.177.265.222.405.148.399.188.736.121 1.013-.067.275-.159.493-.276.653-.195.286-.452.497-.77.636-.32.139-.6.198-.84.178-.213-.007-.452-.075-.717-.207-.264-.131-.495-.327-.692-.586-.12-.162-.23-.385-.328-.666-.098-.283-.108-.631-.031-1.045.032-.176.115-.43.249-.764.133-.334.36-.6.68-.795-.322-.307-.613-.656-.873-1.047-.26-.39-.348-.808-.266-1.255.022-.12.057-.236.107-.35.049-.115.107-.228.175-.34.032-.043.069-.08.11-.11.04-.029.086-.047.135-.054.057-.015.109-.015.154-.003.046.013.089.036.13.068.044.024.079.06.105.106.027.046.044.094.05.145.007.05.006.102-.004.154-.01.052-.03.096-.06.131-.238.344-.243.699-.014 1.067.228.368 1.175 1.31 1.175 1.31l5.405 1.003c.264.049.51-.009.737-.17.227-.164.366-.387.42-.671.05-.276-.001-.53-.154-.763-.153-.233-.363-.375-.627-.424l-5.748-1.067s-.213.056-.267-.033c-.055-.088-.073-.184-.054-.288.021-.11.072-.197.155-.256.082-.059.291-.099.291-.099l5.79 1.075c.242.045.468-.008.676-.157.208-.15.337-.354.385-.615.047-.253 0-.487-.14-.701-.141-.214-.333-.348-.574-.4-.106-.02-.189-.072-.247-.157-.059-.085-.079-.182-.058-.293.019-.103.072-.185.158-.246.086-.062.181-.083.288-.063.448.083.799.32 1.052.71.253.39.336.819.25 1.285-.047.253-.143.485-.288.695-.145.21-.327.377-.546.5.159.2.268.426.328.674.06.248.066.499.02.751z" transform="translate(-335 -409) translate(248 307) translate(88 103)"/>
                        <path d="M104.57 60.55c.008-.155-.017-.325-.078-.509-.06-.143-.206-.323-.435-.538-.229-.216-.46-.424-.691-.623l-.132-.124c-.218.025-.399.132-.54.32-.142.188-.245.454-.308.797-.04.215-.043.412-.01.592.035.18.11.341.225.487.133.18.285.31.457.388.171.076.308.116.411.119.118.005.277-.034.478-.116.202-.081.361-.207.48-.374.086-.124.133-.264.142-.42v.001zm6.187-2.26c-.087.467-.318.837-.695 1.11-.377.274-.789.37-1.237.286l-4.182-.776s.218.315.32.446c.103.13.177.265.222.405.148.399.188.736.121 1.013-.067.275-.159.493-.276.653-.195.286-.452.497-.77.636-.32.139-.6.198-.84.178-.213-.007-.452-.075-.717-.207-.264-.131-.495-.327-.692-.586-.12-.162-.23-.385-.328-.666-.098-.283-.108-.631-.031-1.045.032-.176.115-.43.249-.764.133-.334.36-.6.68-.795-.322-.307-.613-.656-.873-1.047-.26-.39-.348-.808-.266-1.255.022-.12.057-.236.107-.35.049-.115.107-.228.175-.34.032-.043.069-.08.11-.11.04-.029.086-.047.135-.054.057-.015.109-.015.154-.003.046.013.089.036.13.068.044.024.079.06.105.106.027.046.044.094.05.145.007.05.006.102-.004.154-.01.052-.03.096-.06.131-.238.344-.243.699-.014 1.067.228.368 1.175 1.31 1.175 1.31l5.405 1.003c.264.049.51-.009.737-.17.227-.164.366-.387.42-.671.05-.276-.001-.53-.154-.763-.153-.233-.363-.375-.627-.424l-5.748-1.067s-.213.056-.267-.033c-.055-.088-.073-.184-.054-.288.021-.11.072-.197.155-.256.082-.059.291-.099.291-.099l5.79 1.075c.242.045.468-.008.676-.157.208-.15.337-.354.385-.615.047-.253 0-.487-.14-.701-.141-.214-.333-.348-.574-.4-.106-.02-.189-.072-.247-.157-.059-.085-.079-.182-.058-.293.019-.103.072-.185.158-.246.086-.062.181-.083.288-.063.448.083.799.32 1.052.71.253.39.336.819.25 1.285-.047.253-.143.485-.288.695-.145.21-.327.377-.546.5.159.2.268.426.328.674.06.248.066.499.02.751z" transform="translate(-335 -409) translate(248 307) translate(88 103)"/>
                        <path stroke="#FFF" stroke-linecap="round" stroke-linejoin="round" stroke-width=".792" d="M98.208 58.014c0 4.593 3.723 8.316 8.316 8.316 4.593 0 8.316-3.723 8.316-8.316 0-4.593-3.723-8.316-8.316-8.316-4.593 0-8.316 3.723-8.316 8.316z" transform="translate(-335 -409) translate(248 307) translate(88 103)"/>
                        <path fill="#FFF" fill-rule="nonzero" d="M102.129 87.15c-.054.085-.127.144-.226.175-.098.03-.192.022-.332.07l-3.254-1.739c-.038-.143-.097-.214-.129-.31-.031-.095-.022-.19.029-.286.047-.088.12-.148.22-.179.099-.03.192-.021.262.06l2.462 1.314-1.693-5.738-1.953.597c-.095.028-.187.019-.278-.03-.092-.05-.152-.12-.18-.215-.016-.052-.021-.103-.017-.153.006-.05.019-.095.04-.136.026-.048.058-.087.097-.12.039-.031.082-.051.13-.06l1.933-.609-.997-3.197c-.015-.052-.019-.103-.01-.15.008-.05.025-.097.05-.144.022-.041.05-.079.086-.112.036-.034.08-.059.131-.075.048-.008.098-.01.147-.006.05.005.095.018.136.04.048.025.087.057.119.096s.053.079.066.12l.992 3.209 1.953-.598c.048-.008.096-.012.142-.01.047.004.094.018.141.044.04.021.077.051.108.09.032.04.058.08.077.126.009.049.011.098.006.148-.005.05-.018.095-.04.136-.026.048-.056.088-.091.122-.036.034-.078.055-.126.064l-1.953.598 1.661 5.678 1.321-2.47c.106-.058.178-.118.273-.15.096-.032.19-.022.286.028.088.047.147.12.177.22.03.099.021.192-.02.284l-1.746 3.268z" transform="translate(-335 -409) translate(248 307) translate(88 103)"/>
                        <path d="M102.129 87.15c-.054.085-.127.144-.226.175-.098.03-.192.022-.332.07l-3.254-1.739c-.038-.143-.097-.214-.129-.31-.031-.095-.022-.19.029-.286.047-.088.12-.148.22-.179.099-.03.192-.021.262.06l2.462 1.314-1.693-5.738-1.953.597c-.095.028-.187.019-.278-.03-.092-.05-.152-.12-.18-.215-.016-.052-.021-.103-.017-.153.006-.05.019-.095.04-.136.026-.048.058-.087.097-.12.039-.031.082-.051.13-.06l1.933-.609-.997-3.197c-.015-.052-.019-.103-.01-.15.008-.05.025-.097.05-.144.022-.041.05-.079.086-.112.036-.034.08-.059.131-.075.048-.008.098-.01.147-.006.05.005.095.018.136.04.048.025.087.057.119.096s.053.079.066.12l.992 3.209 1.953-.598c.048-.008.096-.012.142-.01.047.004.094.018.141.044.04.021.077.051.108.09.032.04.058.08.077.126.009.049.011.098.006.148-.005.05-.018.095-.04.136-.026.048-.056.088-.091.122-.036.034-.078.055-.126.064l-1.953.598 1.661 5.678 1.321-2.47c.106-.058.178-.118.273-.15.096-.032.19-.022.286.028.088.047.147.12.177.22.03.099.021.192-.02.284l-1.746 3.268z" transform="translate(-335 -409) translate(248 307) translate(88 103)"/>
                        <path stroke="#FFF" stroke-linecap="round" stroke-linejoin="round" stroke-width=".792" d="M91.872 81.774c0 4.593 3.723 8.316 8.316 8.316 4.593 0 8.316-3.723 8.316-8.316 0-4.593-3.723-8.316-8.316-8.316-4.593 0-8.316 3.723-8.316 8.316z" transform="translate(-335 -409) translate(248 307) translate(88 103)"/>
                        <path fill="#FFF" fill-rule="nonzero" d="M77.14 99.05c-.084-.034-.144-.094-.18-.179-.036-.085-.04-.174-.008-.266l.254-.906c.008-.064.033-.118.075-.162.042-.044.089-.077.14-.099.038-.016.078-.024.12-.025.044 0 .088.003.135.01.101.035.18.1.232.196.054.095.066.192.039.29l-.038.128.346-.146c.43-.183.867-.148 1.309.106.183.105.324.273.407.467l2.117 5.003c.051.12.183.277.295.343.256.149.52.166.79.05.211-.089.364-.238.456-.448.092-.21.096-.413.01-.614l-2.426-5.734s.057-.236.097-.336c.04-.099.108-.17.204-.21.096-.04.193-.04.293 0 .1.04.028.283.028.283l2.42 5.715c.09.214.244.365.463.454.218.09.433.089.646-.001.265-.112.43-.314.498-.606.034-.147 0-.385-.06-.524l-2.41-5.697s.043-.23.083-.33c.04-.1.113-.172.216-.215.095-.04.193-.041.293 0 .099.04.03.282.03.282l2.43 5.74s.41.265.614.348c.205.084.406.084.605 0 .199-.085.34-.23.423-.434.082-.206.08-.408-.004-.609-.043-.103-.045-.204-.005-.305.04-.1.108-.17.204-.21.103-.044.203-.044.299-.002.096.041.166.115.21.219.169.399.173.8.012 1.199-.16.4-.44.684-.838.852-.213.09-.433.133-.656.127-.224-.005-.435-.058-.634-.157-.073.214-.186.404-.339.569-.151.164-.334.292-.547.382-.207.088-.424.13-.651.125-.228-.004-.44-.055-.639-.155-.067.212-.178.4-.333.566-.156.167-.337.294-.543.38-.398.17-.797.173-1.2.012-.403-.162-.689-.442-.958-.8l-2.082-4.918c.044-.176-.048-.268-.174-.319-.126-.052-.251-.05-.416-.092l-.62.262.16.16c.094.058.156.138.187.243.032.104.023.202-.026.292-.024.046-.056.083-.095.113-.04.03-.086.056-.137.077-.047.011-.096.015-.146.01-.05-.006-.098-.02-.142-.045l-.833-.459z" transform="translate(-335 -409) translate(248 307) translate(88 103)"/>
                        <path d="M77.14 99.05c-.084-.034-.144-.094-.18-.179-.036-.085-.04-.174-.008-.266l.254-.906c.008-.064.033-.118.075-.162.042-.044.089-.077.14-.099.038-.016.078-.024.12-.025.044 0 .088.003.135.01.101.035.18.1.232.196.054.095.066.192.039.29l-.038.128.346-.146c.43-.183.867-.148 1.309.106.183.105.324.273.407.467l2.117 5.003c.051.12.183.277.295.343.256.149.52.166.79.05.211-.089.364-.238.456-.448.092-.21.096-.413.01-.614l-2.426-5.734s.057-.236.097-.336c.04-.099.108-.17.204-.21.096-.04.193-.04.293 0 .1.04.028.283.028.283l2.42 5.715c.09.214.244.365.463.454.218.09.433.089.646-.001.265-.112.43-.314.498-.606.034-.147 0-.385-.06-.524l-2.41-5.697s.043-.23.083-.33c.04-.1.113-.172.216-.215.095-.04.193-.041.293 0 .099.04.03.282.03.282l2.43 5.74s.41.265.614.348c.205.084.406.084.605 0 .199-.085.34-.23.423-.434.082-.206.08-.408-.004-.609-.043-.103-.045-.204-.005-.305.04-.1.108-.17.204-.21.103-.044.203-.044.299-.002.096.041.166.115.21.219.169.399.173.8.012 1.199-.16.4-.44.684-.838.852-.213.09-.433.133-.656.127-.224-.005-.435-.058-.634-.157-.073.214-.186.404-.339.569-.151.164-.334.292-.547.382-.207.088-.424.13-.651.125-.228-.004-.44-.055-.639-.155-.067.212-.178.4-.333.566-.156.167-.337.294-.543.38-.398.17-.797.173-1.2.012-.403-.162-.689-.442-.958-.8l-2.082-4.918c.044-.176-.048-.268-.174-.319-.126-.052-.251-.05-.416-.092l-.62.262.16.16c.094.058.156.138.187.243.032.104.023.202-.026.292-.024.046-.056.083-.095.113-.04.03-.086.056-.137.077-.047.011-.096.015-.146.01-.05-.006-.098-.02-.142-.045l-.833-.459z" transform="translate(-335 -409) translate(248 307) translate(88 103)"/>
                        <path stroke="#FFF" stroke-linecap="round" stroke-linejoin="round" stroke-width=".792" d="M74.448 99.99c0 4.593 3.723 8.316 8.316 8.316 4.593 0 8.316-3.723 8.316-8.316 0-4.593-3.723-8.316-8.316-8.316-4.593 0-8.316 3.723-8.316 8.316z" transform="translate(-335 -409) translate(248 307) translate(88 103)"/>
                        <path fill="#FFF" fill-rule="nonzero" d="M52.782 105.412c-.102-.01-.187-.054-.255-.132-.067-.078-.096-.172-.085-.281.01-.102.057-.186.139-.253.081-.067.174-.095.276-.085l9.423.938c.102.01.187.055.254.137.068.082.096.174.086.276-.011.11-.058.195-.14.258-.08.063-.173.09-.275.08l-9.423-.938zm9.53 2.465c.106.035.195.083.266.169.071.086.1.183.09.29-.01.107-.059.196-.145.267-.087.07-.304.213-.304.213l-2.276-.227s.013.023.01.09c-.002.066-.007.136-.014.21-.038.38-.146.732-.325 1.054-.178.325-.407.6-.685.826-.278.227-.594.395-.948.505-.355.11-.726.147-1.116.108-.381-.038-.735-.146-1.06-.324-.326-.178-.603-.406-.83-.682-.228-.277-.398-.591-.51-.945-.11-.352-.148-.718-.11-1.098.007-.074.017-.143.027-.21l.046-.272-2.124-.211c-.11-.011-.2-.058-.266-.14-.068-.081-.096-.173-.086-.274.01-.102.056-.187.138-.253.082-.067.178-.095.289-.084l3.218.32-.254.535c-.052.104-.094.212-.126.326-.033.113-.054.227-.066.342-.054.545.095 1.03.445 1.457.352.426.8.667 1.348.721.555.056 1.047-.091 1.475-.44.428-.35.67-.796.724-1.34.012-.116.012-.23.002-.344-.01-.113-.028-.23-.059-.349l-.143-.575 3.369.335z" transform="translate(-335 -409) translate(248 307) translate(88 103)"/>
                        <path d="M52.782 105.412c-.102-.01-.187-.054-.255-.132-.067-.078-.096-.172-.085-.281.01-.102.057-.186.139-.253.081-.067.174-.095.276-.085l9.423.938c.102.01.187.055.254.137.068.082.096.174.086.276-.011.11-.058.195-.14.258-.08.063-.173.09-.275.08l-9.423-.938zm9.53 2.465c.106.035.195.083.266.169.071.086.1.183.09.29-.01.107-.059.196-.145.267-.087.07-.304.213-.304.213l-2.276-.227s.013.023.01.09c-.002.066-.007.136-.014.21-.038.38-.146.732-.325 1.054-.178.325-.407.6-.685.826-.278.227-.594.395-.948.505-.355.11-.726.147-1.116.108-.381-.038-.735-.146-1.06-.324-.326-.178-.603-.406-.83-.682-.228-.277-.398-.591-.51-.945-.11-.352-.148-.718-.11-1.098.007-.074.017-.143.027-.21l.046-.272-2.124-.211c-.11-.011-.2-.058-.266-.14-.068-.081-.096-.173-.086-.274.01-.102.056-.187.138-.253.082-.067.178-.095.289-.084l3.218.32-.254.535c-.052.104-.094.212-.126.326-.033.113-.054.227-.066.342-.054.545.095 1.03.445 1.457.352.426.8.667 1.348.721.555.056 1.047-.091 1.475-.44.428-.35.67-.796.724-1.34.012-.116.012-.23.002-.344-.01-.113-.028-.23-.059-.349l-.143-.575 3.369.335z" transform="translate(-335 -409) translate(248 307) translate(88 103)"/>
                        <path stroke="#FFF" stroke-linecap="round" stroke-linejoin="round" stroke-width=".792" d="M49.104 107.316c0 4.593 3.723 8.316 8.316 8.316 4.593 0 8.316-3.723 8.316-8.316 0-4.593-3.723-8.316-8.316-8.316-4.593 0-8.316 3.723-8.316 8.316z" transform="translate(-335 -409) translate(248 307) translate(88 103)"/>
                        <path fill="#FFF" fill-rule="nonzero" d="M31.079 96.288l-.022-.11c-.525.208-.95.418-1.276.63-.325.213-.51.333-.554.358-.23.185-.41.38-.542.584-.13.205-.195.4-.19.584.001.092.022.173.063.24.04.068.102.13.183.183.219.145.406.16.56.042.153-.116.248-.194.284-.235l1.452-2.194c.01-.013.017-.028.024-.046.008-.018.013-.03.018-.036zm-1.541-1.406c-.052-.1-.102-.176-.122-.275-.02-.1-.002-.19.053-.273.059-.089.136-.145.232-.168.097-.023.287.035.287.035l.965.638c.041.028.079.057.113.089l.105.097c.25-.062.5-.111.75-.146.25-.034.498-.057.742-.068.04 0 .082.004.124.014.044.01.085.029.127.056.048.032.087.074.117.125.03.052.052.105.065.16.006.05.003.097-.013.141-.014.046-.036.09-.066.134-.032.034-.07.063-.116.087-.046.025-.093.035-.14.03-.197.016-.398.035-.602.06-.204.024-.404.058-.6.1.002.012.002.021.002.03 0 .009 0 .018.003.03.017.138.01.278-.018.418-.029.14-.08.267-.156.381l-2.786 4.208c-.114.171-.146.362-.097.572.049.21.17.379.362.506.186.123.386.167.602.133.216-.035.38-.138.494-.31l3.233-4.883s.108-.163.207-.184c.1-.021.19-.005.271.05.082.053.132.13.152.23.02.099-.29.13-.29.13l-3.224 4.87c-.124.188-.165.394-.12.618.044.225.16.398.344.521.193.128.4.167.62.118.22-.05.393-.168.517-.356l3.225-4.87s.246-.073.345-.094c.1-.02.194-.002.28.057.083.053.133.13.152.23.02.099-.096.257-.096.257l-3.245 4.902s-.112.383-.073.588c.041.204.145.362.314.474.17.112.356.146.56.104.204-.043.362-.15.475-.32.06-.09.138-.144.237-.165.1-.02.19-.004.272.05.087.058.14.136.156.233.016.099-.005.19-.064.28-.226.342-.537.554-.935.637-.397.084-.765.013-1.103-.211-.181-.12-.329-.27-.44-.448-.11-.178-.179-.371-.203-.579-.207.054-.415.065-.623.032-.207-.033-.402-.11-.584-.23-.175-.115-.32-.264-.434-.444-.115-.181-.185-.375-.209-.583-.2.059-.407.07-.617.036-.211-.036-.404-.11-.58-.227-.338-.224-.547-.536-.63-.936-.081-.4-.009-.771.056-1.22l.66-.998c.062.096-.035.073-.129.038-.094-.035-.188-.084-.282-.146-.175-.116-.313-.262-.413-.437-.1-.175-.153-.366-.161-.572-.01-.298.075-.604.256-.916.18-.314.435-.598.767-.853.07-.053.27-.185.599-.395.328-.211.755-.42 1.25-.583l-.92-.61z" transform="translate(-335 -409) translate(248 307) translate(88 103)"/>
                        <path d="M31.079 96.288l-.022-.11c-.525.208-.95.418-1.276.63-.325.213-.51.333-.554.358-.23.185-.41.38-.542.584-.13.205-.195.4-.19.584.001.092.022.173.063.24.04.068.102.13.183.183.219.145.406.16.56.042.153-.116.248-.194.284-.235l1.452-2.194c.01-.013.017-.028.024-.046.008-.018.013-.03.018-.036zm-1.541-1.406c-.052-.1-.102-.176-.122-.275-.02-.1-.002-.19.053-.273.059-.089.136-.145.232-.168.097-.023.287.035.287.035l.965.638c.041.028.079.057.113.089l.105.097c.25-.062.5-.111.75-.146.25-.034.498-.057.742-.068.04 0 .082.004.124.014.044.01.085.029.127.056.048.032.087.074.117.125.03.052.052.105.065.16.006.05.003.097-.013.141-.014.046-.036.09-.066.134-.032.034-.07.063-.116.087-.046.025-.093.035-.14.03-.197.016-.398.035-.602.06-.204.024-.404.058-.6.1.002.012.002.021.002.03 0 .009 0 .018.003.03.017.138.01.278-.018.418-.029.14-.08.267-.156.381l-2.786 4.208c-.114.171-.146.362-.097.572.049.21.17.379.362.506.186.123.386.167.602.133.216-.035.38-.138.494-.31l3.233-4.883s.108-.163.207-.184c.1-.021.19-.005.271.05.082.053.132.13.152.23.02.099-.29.13-.29.13l-3.224 4.87c-.124.188-.165.394-.12.618.044.225.16.398.344.521.193.128.4.167.62.118.22-.05.393-.168.517-.356l3.225-4.87s.246-.073.345-.094c.1-.02.194-.002.28.057.083.053.133.13.152.23.02.099-.096.257-.096.257l-3.245 4.902s-.112.383-.073.588c.041.204.145.362.314.474.17.112.356.146.56.104.204-.043.362-.15.475-.32.06-.09.138-.144.237-.165.1-.02.19-.004.272.05.087.058.14.136.156.233.016.099-.005.19-.064.28-.226.342-.537.554-.935.637-.397.084-.765.013-1.103-.211-.181-.12-.329-.27-.44-.448-.11-.178-.179-.371-.203-.579-.207.054-.415.065-.623.032-.207-.033-.402-.11-.584-.23-.175-.115-.32-.264-.434-.444-.115-.181-.185-.375-.209-.583-.2.059-.407.07-.617.036-.211-.036-.404-.11-.58-.227-.338-.224-.547-.536-.63-.936-.081-.4-.009-.771.056-1.22l.66-.998c.062.096-.035.073-.129.038-.094-.035-.188-.084-.282-.146-.175-.116-.313-.262-.413-.437-.1-.175-.153-.366-.161-.572-.01-.298.075-.604.256-.916.18-.314.435-.598.767-.853.07-.053.27-.185.599-.395.328-.211.755-.42 1.25-.583l-.92-.61z" transform="translate(-335 -409) translate(248 307) translate(88 103)"/>
                        <path stroke="#FFF" stroke-linecap="round" stroke-linejoin="round" stroke-width=".792" d="M23.76 99.99c0 4.593 3.723 8.316 8.316 8.316 4.593 0 8.316-3.723 8.316-8.316 0-4.593-3.723-8.316-8.316-8.316-4.593 0-8.316 3.723-8.316 8.316z" transform="translate(-335 -409) translate(248 307) translate(88 103)"/>
                        <path fill="#FFF" fill-rule="nonzero" d="M16.76 82.115c-.512.093-.92.352-1.228.775-.307.423-.42.888-.342 1.395.089.503.344.902.767 1.196.423.294.892.398 1.405.313.252-.045.483-.134.693-.268.209-.134.388-.303.535-.507.151-.197.254-.416.31-.657.055-.24.062-.485.02-.733-.031-.244-.113-.468-.246-.673-.132-.205-.303-.383-.511-.534-.202-.135-.426-.23-.67-.286-.245-.055-.49-.063-.734-.02m-2.668-5.127c-.018-.107.005-.206.07-.296.066-.09.155-.14.267-.153.26-.048.511-.045.756.01.245.056.47.155.675.299.216.147.392.325.525.533.134.21.22.444.258.702.043.248.035.495-.023.74-.058.247-.16.472-.308.677-.156.208-.34.38-.553.514-.213.136-.446.226-.698.27-.109.02-.213.03-.313.028-.1-.002-.205-.015-.315-.039l-.137-.035c-.05-.014-.109-.033-.174-.059-.021-.009-.064-.024-.127-.045-.063-.022-.115-.038-.156-.047l-.053-.03c-.333-.125-.592-.203-.777-.235-.185-.032-.379-.032-.581.001-.579.105-1.038.393-1.379.866-.34.473-.467.992-.38 1.557.098.57.385 1.022.86 1.355.477.334 1.004.45 1.582.345.327-.06.628-.19.904-.391.275-.202.489-.454.64-.757.204-.389.478-.711.82-.967.342-.257.724-.421 1.144-.494.63-.109 1.218-.013 1.76.287.545.302.933.726 1.166 1.274.041.097.077.193.107.286.031.093.056.193.074.3.058.349.047.694-.032 1.039-.08.343-.224.66-.434.954-.21.293-.466.533-.77.72-.303.188-.632.311-.985.373-.354.062-.703.056-1.05-.018-.347-.074-.669-.213-.962-.415-.294-.204-.533-.451-.717-.746-.184-.293-.305-.615-.362-.962-.002-.026-.007-.053-.014-.08-.007-.028-.012-.055-.014-.081-.17.108-.352.203-.542.284-.192.081-.392.14-.603.176-.394.07-.779.061-1.156-.026-.375-.089-.715-.24-1.017-.451-.303-.214-.56-.478-.772-.796-.212-.318-.347-.672-.405-1.064-.066-.388-.054-.768.037-1.139.09-.37.245-.706.465-1.009.219-.301.49-.558.815-.772.325-.213.685-.351 1.083-.414.285-.05.551-.057.797-.02.246.037.574.132.982.287l.077.02.138.055c.049.019.082.029.1.03.044.017.084.031.12.042.036.012.07.02.099.025.058.01.11.017.157.02.046.002.098-.005.155-.02.311-.053.558-.204.74-.455.183-.25.245-.527.188-.831-.046-.3-.195-.537-.446-.714-.25-.176-.533-.239-.843-.186-.05.012-.1.011-.151-.003-.051-.013-.1-.033-.146-.057-.042-.036-.078-.075-.106-.121-.028-.046-.049-.093-.06-.14" transform="translate(-335 -409) translate(248 307) translate(88 103)"/>
                        <path d="M16.76 82.115c-.512.093-.92.352-1.228.775-.307.423-.42.888-.342 1.395.089.503.344.902.767 1.196.423.294.892.398 1.405.313.252-.045.483-.134.693-.268.209-.134.388-.303.535-.507.151-.197.254-.416.31-.657.055-.24.062-.485.02-.733-.031-.244-.113-.468-.246-.673-.132-.205-.303-.383-.511-.534-.202-.135-.426-.23-.67-.286-.245-.055-.49-.063-.734-.02zM14.09 76.99c-.018-.107.005-.206.07-.296.066-.09.155-.14.267-.153.26-.048.511-.045.756.01.245.056.47.155.675.299.216.147.392.325.525.533.134.21.22.444.258.702.043.248.035.495-.023.74-.058.247-.16.472-.308.677-.156.208-.34.38-.553.514-.213.136-.446.226-.698.27-.109.02-.213.03-.313.028-.1-.002-.205-.015-.315-.039l-.137-.035c-.05-.014-.109-.033-.174-.059-.021-.009-.064-.024-.127-.045-.063-.022-.115-.038-.156-.047l-.053-.03c-.333-.125-.592-.203-.777-.235-.185-.032-.379-.032-.581.001-.579.105-1.038.393-1.379.866-.34.473-.467.992-.38 1.557.098.57.385 1.022.86 1.355.477.334 1.004.45 1.582.345.327-.06.628-.19.904-.391.275-.202.489-.454.64-.757.204-.389.478-.711.82-.967.342-.257.724-.421 1.144-.494.63-.109 1.218-.013 1.76.287.545.302.933.726 1.166 1.274.041.097.077.193.107.286.031.093.056.193.074.3.058.349.047.694-.032 1.039-.08.343-.224.66-.434.954-.21.293-.466.533-.77.72-.303.188-.632.311-.985.373-.354.062-.703.056-1.05-.018-.347-.074-.669-.213-.962-.415-.294-.204-.533-.451-.717-.746-.184-.293-.305-.615-.362-.962-.002-.026-.007-.053-.014-.08-.007-.028-.012-.055-.014-.081-.17.108-.352.203-.542.284-.192.081-.392.14-.603.176-.394.07-.779.061-1.156-.026-.375-.089-.715-.24-1.017-.451-.303-.214-.56-.478-.772-.796-.212-.318-.347-.672-.405-1.064-.066-.388-.054-.768.037-1.139.09-.37.245-.706.465-1.009.219-.301.49-.558.815-.772.325-.213.685-.351 1.083-.414.285-.05.551-.057.797-.02.246.037.574.132.982.287l.077.02.138.055c.049.019.082.029.1.03.044.017.084.031.12.042.036.012.07.02.099.025.058.01.11.017.157.02.046.002.098-.005.155-.02.311-.053.558-.204.74-.455.183-.25.245-.527.188-.831-.046-.3-.195-.537-.446-.714-.25-.176-.533-.239-.843-.186-.05.012-.1.011-.151-.003-.051-.013-.1-.033-.146-.057-.042-.036-.078-.075-.106-.121-.028-.046-.049-.093-.06-.14z" transform="translate(-335 -409) translate(248 307) translate(88 103)"/>
                        <path stroke="#FFF" stroke-linecap="round" stroke-linejoin="round" stroke-width=".792" d="M6.336 81.774c0 4.593 3.723 8.316 8.316 8.316 4.593 0 8.316-3.723 8.316-8.316 0-4.593-3.723-8.316-8.316-8.316-4.593 0-8.316 3.723-8.316 8.316z" transform="translate(-335 -409) translate(248 307) translate(88 103)"/>
                        <path fill="#FFF" fill-rule="nonzero" d="M4.867 59.677c.117-.4.363-.706.734-.917.372-.212.76-.26 1.161-.141.393.115.692.364.895.745.202.379.244.77.127 1.17-.12.408-.369.719-.744.928-.376.21-.762.259-1.155.143-.4-.118-.702-.368-.9-.746-.198-.379-.238-.773-.118-1.182zm-1.008-2.75c-.105.354-.174.717-.21 1.087-.034.37-.036.737-.004 1.099s.1.72.203 1.074c.103.355.24.698.41 1.03.144.283.334.529.573.738.238.21.511.358.82.45.593.173 1.165.106 1.719-.204.554-.309.92-.77 1.1-1.385.179-.605.118-1.186-.18-1.747-.328-.614-.831-.995-1.513-1.145-.323-.071-.664-.066-.984.016-.554.143-.99.436-1.309.886l-.101.141-.007-.173c-.012-.282 0-.56.033-.833.033-.274.09-.548.17-.822.188-.637.484-1.213.89-1.728.405-.515.896-.934 1.47-1.255.048-.027.086-.06.113-.1.029-.042.05-.086.064-.132.016-.054.02-.106.016-.157-.006-.052-.019-.096-.042-.14-.017-.044-.044-.081-.082-.112-.038-.032-.084-.055-.136-.07-.044-.013-.09-.017-.14-.011-.05.006-.1.022-.149.05-.33.184-.637.4-.921.645-.284.245-.54.513-.769.803-.228.29-.43.602-.606.937-.177.333-.32.685-.429 1.058zm5.22-1.083c.12-.408.367-.718.737-.924.37-.207.757-.252 1.158-.135.402.118.703.366.903.74.2.374.24.767.12 1.176-.12.408-.366.716-.736.923-.37.208-.759.252-1.16.134-.401-.118-.703-.365-.902-.74-.2-.373-.24-.766-.12-1.174zm-.72-.212c-.178.606-.118 1.187.18 1.747.299.56.748.928 1.35 1.104.459.135.913.123 1.363-.036.451-.16.82-.433 1.106-.821l.101-.137.006.17c.012.281.001.559-.032.833-.033.274-.09.548-.17.822-.188.636-.486 1.212-.896 1.726-.41.514-.903.931-1.477 1.252-.048.027-.086.06-.113.1-.03.042-.05.087-.064.133-.015.054-.02.106-.015.157.005.051.017.095.038.134.026.049.06.09.097.121.04.032.08.054.124.067.052.016.104.02.153.014.048-.005.091-.022.135-.053.332-.185.64-.397.928-.638.286-.24.544-.506.774-.8.229-.295.432-.61.609-.943.175-.333.318-.686.428-1.058.104-.355.173-.718.208-1.088.035-.37.034-.737-.001-1.1-.037-.363-.104-.722-.203-1.075-.099-.353-.233-.696-.403-1.028-.144-.283-.338-.527-.582-.733-.243-.206-.515-.353-.816-.441-.602-.177-1.177-.113-1.73.193-.553.305-.918.764-1.099 1.378z" transform="translate(-335 -409) translate(248 307) translate(88 103)"/>
                        <path d="M4.867 59.677c.117-.4.363-.706.734-.917.372-.212.76-.26 1.161-.141.393.115.692.364.895.745.202.379.244.77.127 1.17-.12.408-.369.719-.744.928-.376.21-.762.259-1.155.143-.4-.118-.702-.368-.9-.746-.198-.379-.238-.773-.118-1.182zm-1.008-2.75c-.105.354-.174.717-.21 1.087-.034.37-.036.737-.004 1.099s.1.72.203 1.074c.103.355.24.698.41 1.03.144.283.334.529.573.738.238.21.511.358.82.45.593.173 1.165.106 1.719-.204.554-.309.92-.77 1.1-1.385.179-.605.118-1.186-.18-1.747-.328-.614-.831-.995-1.513-1.145-.323-.071-.664-.066-.984.016-.554.143-.99.436-1.309.886l-.101.141-.007-.173c-.012-.282 0-.56.033-.833.033-.274.09-.548.17-.822.188-.637.484-1.213.89-1.728.405-.515.896-.934 1.47-1.255.048-.027.086-.06.113-.1.029-.042.05-.086.064-.132.016-.054.02-.106.016-.157-.006-.052-.019-.096-.042-.14-.017-.044-.044-.081-.082-.112-.038-.032-.084-.055-.136-.07-.044-.013-.09-.017-.14-.011-.05.006-.1.022-.149.05-.33.184-.637.4-.921.645-.284.245-.54.513-.769.803-.228.29-.43.602-.606.937-.177.333-.32.685-.429 1.058zm5.22-1.083c.12-.408.367-.718.737-.924.37-.207.757-.252 1.158-.135.402.118.703.366.903.74.2.374.24.767.12 1.176-.12.408-.366.716-.736.923-.37.208-.759.252-1.16.134-.401-.118-.703-.365-.902-.74-.2-.373-.24-.766-.12-1.174zm-.72-.212c-.178.606-.118 1.187.18 1.747.299.56.748.928 1.35 1.104.459.135.913.123 1.363-.036.451-.16.82-.433 1.106-.821l.101-.137.006.17c.012.281.001.559-.032.833-.033.274-.09.548-.17.822-.188.636-.486 1.212-.896 1.726-.41.514-.903.931-1.477 1.252-.048.027-.086.06-.113.1-.03.042-.05.087-.064.133-.015.054-.02.106-.015.157.005.051.017.095.038.134.026.049.06.09.097.121.04.032.08.054.124.067.052.016.104.02.153.014.048-.005.091-.022.135-.053.332-.185.64-.397.928-.638.286-.24.544-.506.774-.8.229-.295.432-.61.609-.943.175-.333.318-.686.428-1.058.104-.355.173-.718.208-1.088.035-.37.034-.737-.001-1.1-.037-.363-.104-.722-.203-1.075-.099-.353-.233-.696-.403-1.028-.144-.283-.338-.527-.582-.733-.243-.206-.515-.353-.816-.441-.602-.177-1.177-.113-1.73.193-.553.305-.918.764-1.099 1.378z" transform="translate(-335 -409) translate(248 307) translate(88 103)"/>
                        <path stroke="#FFF" stroke-linecap="round" stroke-linejoin="round" stroke-width=".792" d="M0 58.014c0 4.593 3.723 8.316 8.316 8.316 4.593 0 8.316-3.723 8.316-8.316 0-4.593-3.723-8.316-8.316-8.316C3.723 49.698 0 53.421 0 58.014z" transform="translate(-335 -409) translate(248 307) translate(88 103)"/>
                        <path fill="#FFF" fill-rule="nonzero" d="M13.497 32.325l3.264 2.39c-.11.078-.21.215-.345.327-.1.137-.236.25-.336.388-.1.137-.201.274-.268.437-.075.103-.142.266-.183.393l-3.264-2.389c.455-.405.858-.955 1.132-1.546m6.166 1.26c-.393.03-.785.06-1.16.21-.348.115-1.018.45-1.018.45l-3.69-2.702s.118-.738.122-1.106c-.03-.393-.061-.786-.15-1.17-.044-.085-.079-.11-.08-.178l-.139-.102c-.042-.016-.135-.032-.135-.032-.06.01-.095-.016-.12.019-.119.018-.145.053-.188.075l-.1.137c-.008.047-.033.082-.05.177.01.059-.015.093-.006.153.177.554.2 1.1.105 1.666-.096.565-.321 1.09-.675 1.572-.353.483-.785.855-1.295 1.118-.51.262-1.037.405-1.62.403-.034-.025-.093-.016-.152-.006-.026.034-.013.15-.013.15l-.101.138c.009.06-.016.094-.008.153.009.06-.017.094-.008.153.067.05.076.108.11.133l.136.1c.059-.01.092.015.151.005.389-.033.776-.066 1.147-.217.345-.117.715-.267 1.052-.443l3.62 2.65c-.065.374-.131.748-.104 1.137.026.39.054.779.165 1.124-.05.069-.017.094-.008.153l.135.099c.034.024.093.015.127.04.059-.01.093.015.177-.03.059-.009.084-.043.143-.053l.102-.139.073-.105c-.01-.06.016-.094-.028-.179-.177-.553-.2-1.1-.104-1.665.096-.566.32-1.09.674-1.573.353-.483.784-.855 1.294-1.117.51-.263 1.039-.405 1.646-.439.059-.008.093.017.144-.052.06-.01.085-.044.22-.052l.024-.034c-.058-.096-.033-.13-.042-.19.025-.035.016-.094.041-.129-.009-.06-.018-.119-.053-.144-.009-.06-.044-.085-.097-.085l-.137-.101c-.032.044-.067.018-.127.027" transform="translate(-335 -409) translate(248 307) translate(88 103)"/>
                        <path d="M13.497 32.325l3.264 2.39c-.11.078-.21.215-.345.327-.1.137-.236.25-.336.388-.1.137-.201.274-.268.437-.075.103-.142.266-.183.393l-3.264-2.389c.455-.405.858-.955 1.132-1.546zm6.166 1.26c-.393.03-.785.06-1.16.21-.348.115-1.018.45-1.018.45l-3.69-2.702s.118-.738.122-1.106c-.03-.393-.061-.786-.15-1.17-.044-.085-.079-.11-.08-.178l-.139-.102c-.042-.016-.135-.032-.135-.032-.06.01-.095-.016-.12.019-.119.018-.145.053-.188.075l-.1.137c-.008.047-.033.082-.05.177.01.059-.015.093-.006.153.177.554.2 1.1.105 1.666-.096.565-.321 1.09-.675 1.572-.353.483-.785.855-1.295 1.118-.51.262-1.037.405-1.62.403-.034-.025-.093-.016-.152-.006-.026.034-.013.15-.013.15l-.101.138c.009.06-.016.094-.008.153.009.06-.017.094-.008.153.067.05.076.108.11.133l.136.1c.059-.01.092.015.151.005.389-.033.776-.066 1.147-.217.345-.117.715-.267 1.052-.443l3.62 2.65c-.065.374-.131.748-.104 1.137.026.39.054.779.165 1.124-.05.069-.017.094-.008.153l.135.099c.034.024.093.015.127.04.059-.01.093.015.177-.03.059-.009.084-.043.143-.053l.102-.139.073-.105c-.01-.06.016-.094-.028-.179-.177-.553-.2-1.1-.104-1.665.096-.566.32-1.09.674-1.573.353-.483.784-.855 1.294-1.117.51-.263 1.039-.405 1.646-.439.059-.008.093.017.144-.052.06-.01.085-.044.22-.052l.024-.034c-.058-.096-.033-.13-.042-.19.025-.035.016-.094.041-.129-.009-.06-.018-.119-.053-.144-.009-.06-.044-.085-.097-.085l-.137-.101c-.032.044-.067.018-.127.027z" transform="translate(-335 -409) translate(248 307) translate(88 103)"/>
                        <path stroke="#FFF" stroke-linecap="round" stroke-linejoin="round" stroke-width=".792" d="M6.336 34.452c0 4.593 3.723 8.316 8.316 8.316 4.593 0 8.316-3.723 8.316-8.316 0-4.593-3.723-8.316-8.316-8.316-4.593 0-8.316 3.723-8.316 8.316z" transform="translate(-335 -409) translate(248 307) translate(88 103)"/>
                    </g>
                </g>
            </g>
        </g>
    </g>
</svg>
